# xmcd
#
# Track frame offsets: 
#        150
#        19766
#        37778
#        58110
#        76842
#        95512
#        114400
#        133538
#        152156
#        171256
#        197208
#        214853
#        233375
#        257302
#        276809
#        297507
#        323595
#
# Disc length: 4584 seconds
#
# Revision: 2
# Processed by: cddbd v1.5.2PL0 Copyright (c) Steve Scherf et al.
# Submitted via: ExactAudioCopy v0.99pb5
#
DISCID=e011e611
DTITLE=Kenny G - Sentiment
DYEAR=2005
DGENRE=Jazz
TTITLE0=Everything I Do, I Do It For You (with LeeAnn Rimes)
TTITLE1=Songbird
TTITLE2=Silhouette
TTITLE3=The Way You Move (with Earth Wind and Fire)
TTITLE4=Midnight Motion
TTITLE5=Tradewinds
TTITLE6=Don't Make Me Wait For Love (with Michael Bolton)
TTITLE7=What Does It Take (To Win Your Love) (with Ellis Hall)
TTITLE8=Going Home
TTITLE9=Pastel
TTITLE10=Sorry Seems To Be The Hardest Word (with Richard Marx)
TTITLE11=Against Doctor's Orders
TTITLE12=You Make Me Believe (with Claytoven Richardson)
TTITLE13=We've Saved The Best For Last (with Smokey Robinson)
TTITLE14=Uncle Al
TTITLE15=Let Go
TTITLE16=The Music That Makes Me Dance (with Barbra Streisand)
EXTD=YEAR: 2005
EXTT0=
EXTT1=
EXTT2=
EXTT3=
EXTT4=
EXTT5=
EXTT6=
EXTT7=
EXTT8=
EXTT9=
EXTT10=
EXTT11=
EXTT12=
EXTT13=
EXTT14=
EXTT15=
EXTT16=
PLAYORDER=
